HIERARCHY
ROOT bvh
{
	OFFSET 83.5 2.3 -43.9
	CHANNELS 0
	JOINT km1
	{
		OFFSET -3.624 -3.932 -15.849
		CHANNELS 6 Xposition Yposition Zposition Xrotation Yrotation Zrotation
		End Site
		{
			OFFSET 6.616 4.854 5.812
		}
	}
	JOINT km2
	{
		OFFSET -3.206 11.200 19.085
		CHANNELS 6 Xposition Yposition Zposition Xrotation Yrotation Zrotation
		End Site
		{
			OFFSET 5.604 10.797 -2.023
		}
	}
	JOINT km3
	{
		OFFSET 0.115 13.940 -6.965
		CHANNELS 6 Xposition Yposition Zposition Xrotation Yrotation Zrotation
		End Site
		{
			OFFSET 4.889 -0.100 -9.877
		}
	}
	JOINT km4
	{
		OFFSET 11.452 -21.375 -2.548
		CHANNELS 6 Xposition Yposition Zposition Xrotation Yrotation Zrotation
		End Site
		{
			OFFSET 5.830 8.078 5.747
		}
	}
	JOINT km5
	{
		OFFSET 4.454 24.709 5.308
		CHANNELS 6 Xposition Yposition Zposition Xrotation Yrotation Zrotation
		End Site
		{
			OFFSET 6.565 -6.828 -7.190
		}
	}
	JOINT km6
	{
		OFFSET -19.729 9.296 -5.817
		CHANNELS 6 Xposition Yposition Zposition Xrotation Yrotation Zrotation
		End Site
		{
			OFFSET 4.464 -9.079 -7.501
		}
	}
	JOINT km7
	{
		OFFSET -9.733 18.295 -5.695
		CHANNELS 6 Xposition Yposition Zposition Xrotation Yrotation Zrotation
		End Site
		{
			OFFSET 7.071 4.221 -20.773
		}
	}
	JOINT km8
	{
		OFFSET 15.171 7.507 11.275
		CHANNELS 6 Xposition Yposition Zposition Xrotation Yrotation Zrotation
		End Site
		{
			OFFSET 4.025 5.877 -0.858
		}
	}
	JOINT km9
	{
		OFFSET -18.120 -17.436 -1.375
		CHANNELS 6 Xposition Yposition Zposition Xrotation Yrotation Zrotation
		End Site
		{
			OFFSET 3.021 -0.969 -4.386
		}
	}
	JOINT km10
	{
		OFFSET 17.153 1.518 -10.986
		CHANNELS 6 Xposition Yposition Zposition Xrotation Yrotation Zrotation
		End Site
		{
			OFFSET 4.727 -10.799 4.134
		}
	}
	JOINT km11
	{
		OFFSET -7.845 -21.522 7.277
		CHANNELS 6 Xposition Yposition Zposition Xrotation Yrotation Zrotation
		End Site
		{
			OFFSET 5.369 -1.013 -9.977
		}
	}
	JOINT km12
	{
		OFFSET -0.786 2.884 12.038
		CHANNELS 6 Xposition Yposition Zposition Xrotation Yrotation Zrotation
		End Site
		{
			OFFSET 6.389 -8.112 2.707
		}
	}
	JOINT km13
	{
		OFFSET 1.332 -22.015 17.148
		CHANNELS 6 Xposition Yposition Zposition Xrotation Yrotation Zrotation
		End Site
		{
			OFFSET 6.020 7.513 2.125
		}
	}
	JOINT km14
	{
		OFFSET 3.406 -13.222 -21.752
		CHANNELS 6 Xposition Yposition Zposition Xrotation Yrotation Zrotation
		End Site
		{
			OFFSET 6.039 -6.548 9.336
		}
	}
	JOINT km15
	{
		OFFSET -16.052 -10.193 10.345
		CHANNELS 6 Xposition Yposition Zposition Xrotation Yrotation Zrotation
		End Site
		{
			OFFSET 4.060 6.709 4.860
		}
	}
	JOINT km16
	{
		OFFSET -17.121 13.315 2.834
		CHANNELS 6 Xposition Yposition Zposition Xrotation Yrotation Zrotation
		End Site
		{
			OFFSET 5.578 9.460 -0.783
		}
	}
}
MOTION
Frames: 6
Frame Time: 0.01400
-3.675313 -3.969496 -15.797852 0 0 0 -2.987626 11.160872 19.063702 0 0 0 -0.041441 13.996251 -7.020700 0 0 0 11.566150 -21.331653 -2.312221 0 0 0 4.386230 24.760157 5.154934 0 0 0 -19.812475 9.564253 -5.796497 0 0 0 -9.817075 18.493144 -5.692620 0 0 0 15.148219 7.428632 10.870052 0 0 0 -17.945939 -17.243514 -1.633674 0 0 0 17.104998 1.585879 -10.911084 0 0 0 -7.796167 -21.651408 7.154057 0 0 0 -0.826390 2.802729 12.043137 0 0 0 1.080875 -22.268786 17.187237 0 0 0 3.697237 -13.356389 -21.549220 0 0 0 -16.006121 -10.379203 10.438016 0 0 0 -17.148465 13.554722 2.909840 0 0 0 
-3.724926 -4.000676 -15.748349 0 0 0 -2.784653 11.121080 19.039308 0 0 0 -0.188587 14.046144 -7.073927 0 0 0 11.669496 -21.291164 -2.097306 0 0 0 4.332700 24.798294 5.012419 0 0 0 -19.894656 9.804854 -5.772051 0 0 0 -9.904237 18.667896 -5.689909 0 0 0 15.132816 7.344679 10.501311 0 0 0 -17.786006 -17.084820 -1.870409 0 0 0 17.061800 1.655823 -10.827921 0 0 0 -7.748744 -21.767570 7.044171 0 0 0 -0.864864 2.728878 12.045201 0 0 0 0.853870 -22.491897 17.226492 0 0 0 3.964282 -13.462097 -21.366918 0 0 0 -15.971102 -10.542201 10.505514 0 0 0 -17.170583 13.771197 2.981554 0 0 0 
-3.771886 -4.020118 -15.701990 0 0 0 -2.611121 11.081220 19.009862 0 0 0 -0.317039 14.083975 -7.122155 0 0 0 11.752576 -21.256265 -1.921212 0 0 0 4.304804 24.812793 4.889859 0 0 0 -19.972829 9.992819 -5.739638 0 0 0 -9.995655 18.799429 -5.686973 0 0 0 15.130930 7.251240 10.201574 0 0 0 -17.653147 -16.989470 -2.066328 0 0 0 17.027915 1.729414 -10.731007 0 0 0 -7.704691 -21.859159 6.959452 0 0 0 -0.900593 2.668697 12.042189 0 0 0 0.672530 -22.656677 17.265259 0 0 0 4.185434 -13.516091 -21.223114 0 0 0 -15.956373 -10.661332 10.525867 0 0 0 -17.183071 13.943260 3.045861 0 0 0 
-3.814710 -4.024635 -15.660615 0 0 0 -2.478305 11.042529 18.974873 0 0 0 -0.418776 14.105262 -7.162903 0 0 0 11.808053 -21.228486 -1.798305 0 0 0 4.310625 24.797097 4.795376 0 0 0 -20.044031 10.109029 -5.696122 0 0 0 -10.090321 18.872441 -5.683625 0 0 0 15.146335 7.148113 9.996582 0 0 0 -17.557693 -16.977919 -2.206923 0 0 0 17.006384 1.806581 -10.619180 0 0 0 -7.665863 -21.917884 6.908078 0 0 0 -0.932484 2.627526 12.032591 0 0 0 0.552242 -22.743347 17.302273 0 0 0 4.343509 -13.503435 -21.131546 0 0 0 -15.968291 -10.722232 10.484841 0 0 0 -17.182373 14.055328 3.099921 0 0 0 
-3.851772 -4.013752 -15.626263 0 0 0 -2.393824 11.007455 18.935853 0 0 0 -0.487343 14.107210 -7.193774 0 0 0 11.831579 -21.208142 -1.737567 0 0 0 4.353286 24.750012 4.735026 0 0 0 -20.104457 10.142098 -5.639402 0 0 0 -10.184198 18.878362 -5.679618 0 0 0 15.179731 7.039552 9.902667 0 0 0 -17.506466 -17.058841 -2.283901 0 0 0 16.998591 1.885299 -10.496952 0 0 0 -7.634222 -21.939599 6.893670 0 0 0 -0.959719 2.609058 12.015974 0 0 0 0.500691 -22.741993 17.335316 0 0 0 4.427511 -13.420398 -21.100101 0 0 0 -16.009251 -10.718400 10.377884 0 0 0 -17.166343 14.098815 3.141794 0 0 0 
-3.881330 -3.989848 -15.601071 0 0 0 -2.361139 10.979590 18.896338 0 0 0 -0.518320 14.089004 -7.212597 0 0 0 11.822242 -21.194382 -1.741811 0 0 0 4.430416 24.676062 4.712366 0 0 0 -20.149636 10.089543 -5.568767 0 0 0 -10.270305 18.816301 -5.674666 0 0 0 15.228473 6.934275 9.925316 0 0 0 -17.502146 -17.227745 -2.295926 0 0 0 17.004152 1.961428 -10.374630 0 0 0 -7.611713 -21.924714 6.914890 0 0 0 -0.981767 2.615013 11.993111 0 0 0 0.517136 -22.653726 17.361308 0 0 0 4.433566 -13.275348 -21.130044 0 0 0 -16.077227 -10.651972 10.211051 0 0 0 -17.134551 14.073023 3.170528 0 0 0 
